<svg xmlns="http://www.w3.org/2000/svg" id="Layer_1" data-name="Layer 1" viewBox="0 0 237.94 48.02"><defs><style>      .cls-1 {        fill: #ef3a3a;      }      .cls-1, .cls-2, .cls-3 {        stroke-width: 0px;      }      .cls-2 {        fill: #000;      }      .cls-3 {        fill: #d61f26;      }    </style></defs><path class="cls-3" d="M24.56,24.72v-15.75S18.03,0,5.75,0H0v48h21.5v-11.66h-9.96V13.85s7.65,1.53,13.02,10.87Z"></path><path class="cls-1" d="M24.56,24.72v-15.75S31.09,0,43.37,0h5.75v48h-21.5v-11.66h10.01V13.85s-7.69,1.53-13.06,10.87Z"></path><g><g><path class="cls-2" d="M64.37,3.12l5.32,15.03,5.27-15.03h5.58v20.72h-4.28v-5.64l.42-9.76-5.58,15.45h-2.92l-5.58-15.45.42,9.76v5.69h-4.28V3.12h5.64Z"></path><path class="cls-2" d="M97.04,14.86h-8.19v5.53h9.6v3.44h-13.88V3.12h13.88v3.44h-9.6v4.96h8.19v3.34Z"></path><path class="cls-2" d="M117.13,6.62h-6.37v17.27h-4.28V6.62h-6.26v-3.5h16.91v3.5Z"></path><path class="cls-2" d="M129.86,19.56h-7.51l-1.41,4.28h-4.54l7.72-20.72h3.97l7.78,20.72h-4.54l-1.46-4.28ZM123.55,16.12h5.17l-2.61-7.78-2.56,7.78Z"></path><path class="cls-2" d="M138.06,23.84V3.12h6.37c1.83,0,3.44.42,4.91,1.25s2.56,1.98,3.34,3.5c.78,1.51,1.2,3.24,1.2,5.17v.94c0,1.93-.42,3.65-1.2,5.11-.78,1.51-1.93,2.66-3.34,3.5-1.46.83-3.08,1.25-4.91,1.25,0,0-6.37,0-6.37,0ZM142.34,6.62v13.83h2.09c1.67,0,2.92-.52,3.81-1.62.89-1.1,1.36-2.66,1.36-4.7v-1.1c0-2.09-.42-3.71-1.3-4.8-.89-1.1-2.14-1.62-3.81-1.62h-2.14Z"></path><path class="cls-2" d="M169.73,14.86h-8.19v5.53h9.6v3.44h-13.88V3.12h13.88v3.44h-9.6v4.96h8.19v3.34Z"></path><path class="cls-2" d="M184.71,18.41c0-.78-.26-1.41-.83-1.88-.57-.42-1.62-.89-3.08-1.36-1.46-.47-2.66-.94-3.5-1.41-2.35-1.25-3.55-2.97-3.55-5.11,0-1.1.31-2.14.94-2.97.63-.89,1.51-1.57,2.71-2.04,1.2-.47,2.5-.73,3.97-.73s2.82.26,3.97.78c1.15.52,2.04,1.3,2.71,2.24s.94,2.09.94,3.34h-4.28c0-.94-.31-1.67-.89-2.19-.57-.52-1.46-.78-2.5-.78s-1.88.21-2.45.68c-.57.42-.89,1.04-.89,1.72s.31,1.25.99,1.67c.68.47,1.67.89,2.97,1.3,2.45.73,4.17,1.62,5.32,2.71,1.1,1.1,1.67,2.45,1.67,4.02,0,1.77-.68,3.18-2.04,4.23-1.36,1.04-3.18,1.51-5.48,1.51-1.62,0-3.03-.31-4.33-.89-1.3-.57-2.3-1.36-2.97-2.4-.68-1.04-1.04-2.19-1.04-3.55h4.28c0,2.3,1.36,3.44,4.12,3.44.99,0,1.83-.21,2.4-.63.52-.42.83-.99.83-1.72Z"></path><path class="cls-2" d="M196.71,23.84h-4.28V3.12h4.28v20.72Z"></path><path class="cls-2" d="M217.32,21.23c-.78.94-1.88,1.62-3.24,2.14-1.41.52-2.97.78-4.64.78-1.77,0-3.34-.42-4.7-1.15-1.36-.78-2.4-1.93-3.13-3.39-.73-1.51-1.1-3.24-1.15-5.27v-1.41c0-2.09.37-3.86,1.04-5.37s1.72-2.66,3.03-3.5c1.3-.78,2.87-1.2,4.59-1.2,2.45,0,4.38.57,5.74,1.77,1.41,1.15,2.19,2.87,2.45,5.11h-4.17c-.21-1.2-.63-2.04-1.25-2.61s-1.57-.83-2.66-.83c-1.46,0-2.56.52-3.34,1.62-.78,1.1-1.15,2.71-1.15,4.85v1.3c0,2.19.42,3.81,1.25,4.91s2.04,1.67,3.65,1.67,2.77-.37,3.44-1.04v-3.55h-3.86v-3.13h8.09v8.3Z"></path><path class="cls-2" d="M237.94,23.84h-4.28l-8.3-13.62v13.62h-4.28V3.12h4.28l8.3,13.67V3.12h4.28v20.72Z"></path></g><g><path class="cls-2" d="M67.35,41.11c0-.63-.21-1.15-.68-1.51s-1.3-.73-2.45-1.04c-1.2-.37-2.14-.78-2.87-1.2-1.36-.83-2.04-1.93-2.04-3.29,0-1.2.47-2.19,1.46-2.92.99-.78,2.24-1.15,3.81-1.15,1.04,0,1.93.21,2.77.57s1.46.94,1.88,1.62.68,1.46.68,2.35h-2.56c0-.78-.26-1.36-.73-1.83-.47-.42-1.2-.68-2.09-.68-.83,0-1.51.16-1.93.52-.47.37-.68.83-.68,1.51,0,.52.26.99.73,1.36.52.37,1.3.73,2.5,1.04,1.15.37,2.09.73,2.77,1.15.68.42,1.2.94,1.51,1.51.31.57.47,1.25.47,1.98,0,1.25-.47,2.19-1.41,2.92-.94.73-2.24,1.1-3.86,1.1-1.1,0-2.04-.21-2.97-.57-.89-.42-1.62-.94-2.09-1.62-.52-.68-.73-1.51-.73-2.45h2.56c0,.83.26,1.51.83,1.93s1.36.68,2.4.68c.89,0,1.57-.16,2.04-.52.47-.37.68-.83.68-1.46Z"></path><path class="cls-2" d="M92.6,37.93c0,1.46-.26,2.71-.73,3.81-.52,1.1-1.2,1.93-2.14,2.5s-1.98.89-3.24.89-2.24-.31-3.18-.89-1.67-1.41-2.19-2.5c-.52-1.1-.78-2.35-.78-3.76v-.83c0-1.46.26-2.71.78-3.81.52-1.1,1.25-1.93,2.14-2.56.94-.57,1.98-.89,3.18-.89s2.3.31,3.18.89c.94.57,1.67,1.41,2.14,2.5.52,1.1.78,2.35.78,3.81l.05.83h0ZM89.99,37.15c0-1.62-.31-2.87-.94-3.76s-1.51-1.3-2.66-1.3-1.98.42-2.61,1.3-.94,2.09-.94,3.71v.83c0,1.62.31,2.87.94,3.76.63.89,1.51,1.36,2.66,1.36s2.04-.42,2.61-1.3c.57-.89.94-2.14.94-3.81v-.78Z"></path><path class="cls-2" d="M106.33,42.89h6.73v2.04h-9.29v-14.77h2.56v12.73Z"></path><path class="cls-2" d="M134.19,30.15v9.86c0,1.57-.52,2.82-1.51,3.76s-2.35,1.36-4.02,1.36-3.03-.47-4.02-1.36c-.99-.89-1.51-2.14-1.51-3.76v-9.86h2.56v9.91c0,.99.26,1.72.73,2.24.52.52,1.25.78,2.19.78,1.98,0,2.97-1.04,2.97-3.13v-9.81h2.61Z"></path><path class="cls-2" d="M156.27,32.19h-4.59v12.73h-2.56v-12.73h-4.59v-2.09h11.74v2.09Z"></path><path class="cls-2" d="M169.52,44.92h-2.56v-14.77h2.56v14.77Z"></path><path class="cls-2" d="M193.11,37.93c0,1.46-.26,2.71-.73,3.81-.52,1.1-1.2,1.93-2.14,2.5s-1.98.89-3.24.89-2.24-.31-3.18-.89c-.94-.57-1.67-1.41-2.19-2.5-.52-1.1-.78-2.35-.78-3.76v-.83c0-1.46.26-2.71.78-3.81.52-1.1,1.25-1.93,2.14-2.56.94-.57,1.98-.89,3.18-.89s2.3.31,3.18.89c.89.57,1.67,1.41,2.14,2.5.52,1.1.78,2.35.78,3.81v.83h.05ZM190.55,37.15c0-1.62-.31-2.87-.94-3.76-.63-.89-1.51-1.3-2.66-1.3s-1.98.42-2.61,1.3-.94,2.09-.94,3.71v.83c0,1.62.31,2.87.94,3.76.63.89,1.51,1.36,2.66,1.36s2.04-.42,2.61-1.3c.63-.89.94-2.14.94-3.81v-.78Z"></path><path class="cls-2" d="M216.02,44.92h-2.56l-6.58-10.49v10.49h-2.61v-14.77h2.56l6.63,10.54v-10.54h2.56v14.77Z"></path><path class="cls-2" d="M235.43,41.11c0-.63-.21-1.15-.68-1.51s-1.3-.73-2.45-1.04c-1.2-.37-2.14-.78-2.87-1.2-1.36-.83-2.04-1.93-2.04-3.29,0-1.2.47-2.19,1.46-2.92.99-.78,2.24-1.15,3.81-1.15,1.04,0,1.93.21,2.77.57s1.46.94,1.88,1.62c.42.68.68,1.46.68,2.35h-2.56c0-.78-.26-1.36-.73-1.83-.47-.42-1.2-.68-2.09-.68-.83,0-1.51.16-1.93.52-.47.37-.68.83-.68,1.51,0,.52.26.99.73,1.36.52.37,1.3.73,2.5,1.04,1.15.37,2.09.73,2.77,1.15.68.42,1.2.94,1.51,1.51s.47,1.25.47,1.98c0,1.25-.47,2.19-1.41,2.92-.94.73-2.24,1.1-3.86,1.1-1.1,0-2.04-.21-2.97-.57-.89-.42-1.62-.94-2.09-1.62-.47-.68-.73-1.51-.73-2.45h2.56c0,.83.26,1.51.83,1.93s1.36.68,2.4.68c.89,0,1.57-.16,2.04-.52s.68-.83.68-1.46Z"></path></g></g></svg>